<?xml version="1.0" encoding="utf-8"?>

<!-- License Agreement at http://iconmonstr.com/license/ -->

<!DOCTYPE svg PUBLIC "-//W3C//DTD SVG 1.1//EN" "http://www.w3.org/Graphics/SVG/1.1/DTD/svg11.dtd">
<svg version="1.1" xmlns="http://www.w3.org/2000/svg" xmlns:xlink="http://www.w3.org/1999/xlink" x="0px" y="0px"
	 width="512px" height="512px" viewBox="0 0 512 512" style="enable-background:new 0 0 512 512;" xml:space="preserve">
<path id="sort-22-icon" d="M328.959,114.772V91.517c8.76-0.391,47.352,0.729,47.352-30.689h28.531v173.822h-35.004V114.772H328.959z
	 M339.502,295.442c22.865-24.566,74.492-24.789,92.041,17.01c5.344,12.678,8.018,29.365,8.018,50.059
	c0,46.947-14.584,88.662-61.514,88.662c-24.725,0-47.719-14.904-50.631-43.301h32.533c1.506,9.65,8.316,16.496,19.588,16.496
	c22.256,0,26.08-24.658,27.148-46.621c-15.916,19.996-47.844,17.703-67.242,0.4C318.061,359.083,319.568,316.858,339.502,295.442z
	 M394.428,361.366c14.738-9.422,13.486-35.742,4.525-46.967c-8.289-10.377-23.725-10.359-32.361-3.551
	c-12.604,9.838-11.479,37.074-3.379,47.023C369.852,366.026,384.543,367.829,394.428,361.366z M204.707,190.744v130.513h62.658
	l-97.463,129.916L72.439,321.257h62.658V190.744H72.439l97.463-129.917l97.463,129.917H204.707z"/>
</svg>
