<?xml version="1.0" encoding="utf-8"?>
<!-- Generator: Adobe Illustrator 17.1.0, SVG Export Plug-In . SVG Version: 6.00 Build 0)  -->
<!DOCTYPE svg PUBLIC "-//W3C//DTD SVG 1.1//EN" "http://www.w3.org/Graphics/SVG/1.1/DTD/svg11.dtd">
<svg version="1.1" fill="white"  xmlns="http://www.w3.org/2000/svg" xmlns:xlink="http://www.w3.org/1999/xlink" x="0px" y="0px"
	 viewBox="0 0 841.9 595.3" enable-background="new 0 0 841.9 595.3" xml:space="preserve">
<g id="Futu_Layer" display="none">
	
		<image display="inline" overflow="visible" opacity="0.14" width="1536" height="1752" xlink:href="../../../Futurice Branding /Futurice_logo/futurice_logo_basic.png"  transform="matrix(0.4323 0 0 0.4323 88.945 -84.095)">
	</image>
	<rect x="204" y="466.3" fill="#31C42A" width="421" height="117"/>
</g>
<g id="Circles">
	<circle fill="none" stroke="#000000" stroke-width="16.7111" stroke-miterlimit="10" cx="422.7" cy="293.8" r="235"/>
	<circle cx="471" cy="188.8" r="16.7"/>
	<circle cx="366.7" cy="206.8" r="16.7"/>
	<circle cx="458.7" cy="148.8" r="16.7"/>
	<circle cx="528.7" cy="122.8" r="16.7"/>
	<circle cx="315.7" cy="212.1" r="16.7"/>
	<circle cx="558.7" cy="146.8" r="16.7"/>
	<circle cx="428.7" cy="131.8" r="16.7"/>
	<circle cx="428.7" cy="96.8" r="16.7"/>
	<circle cx="567.7" cy="228.8" r="16.7"/>
	<circle cx="487.7" cy="277.8" r="16.7"/>
	<circle cx="511.7" cy="303.8" r="16.7"/>
	<circle cx="413.7" cy="181.4" r="22"/>
	<circle cx="388.7" cy="109.4" r="22"/>
	<circle cx="288.7" cy="179.4" r="22"/>
	<circle cx="518.7" cy="179.4" r="22"/>
	<circle cx="358.7" cy="249.4" r="22"/>
	<circle cx="268.7" cy="249.4" r="22"/>
	<circle cx="604.8" cy="336.3" r="29.5"/>
	<circle cx="348.2" cy="159.3" r="29.5"/>
	<circle cx="558.2" cy="289.3" r="29.5"/>
	<circle cx="502.2" cy="231.3" r="29.5"/>
	<circle cx="468.2" cy="336.3" r="29.5"/>
	<circle cx="290.2" cy="319.3" r="29.5"/>
	<circle cx="428.7" cy="245.4" r="35"/>
	<circle cx="428.7" cy="305.1" r="16.7"/>
	<circle cx="388.7" cy="280.1" r="16.7"/>
	<circle cx="314.7" cy="362.1" r="16.7"/>
	<circle cx="328.7" cy="399.1" r="16.7"/>
	<circle cx="401.7" cy="456.1" r="16.7"/>
	<circle cx="313.3" cy="282.4" r="11"/>
	<circle cx="334.3" cy="272.4" r="11"/>
	<circle cx="463.3" cy="378.4" r="11"/>
	<circle cx="509.3" cy="342.4" r="11"/>
	<circle cx="533.3" cy="336.4" r="11"/>
	<circle cx="559.3" cy="338.4" r="11"/>
	<circle cx="585.3" cy="372.4" r="11"/>
	<circle cx="577.3" cy="395.4" r="11"/>
	<circle cx="538.7" cy="444.8" r="16.7"/>
	<circle cx="539.3" cy="473.4" r="11"/>
	<circle cx="572.7" cy="437.8" r="16.7"/>
	<circle cx="595.3" cy="417.4" r="11"/>
	<circle cx="513.7" cy="440.8" r="5"/>
	<circle cx="550.7" cy="421.8" r="5"/>
	<circle cx="558.7" cy="459.8" r="5"/>
	<circle cx="564.7" cy="412.8" r="5"/>
	<circle cx="577.7" cy="413.8" r="5"/>
	<circle cx="595.7" cy="398.8" r="5"/>
	<circle cx="608.7" cy="399.8" r="5"/>
	<circle cx="608.3" cy="379.4" r="11"/>
	<circle cx="599.3" cy="293.4" r="11"/>
	<circle cx="569.7" cy="322.8" r="5"/>
	<circle cx="534.7" cy="317.8" r="5"/>
	<circle cx="502.7" cy="326.8" r="5"/>
	<circle cx="497.7" cy="357.8" r="5"/>
	<circle cx="485.7" cy="366.8" r="5"/>
	<circle cx="460.7" cy="395.8" r="5"/>
	<circle cx="459.7" cy="407.8" r="5"/>
	<circle cx="457.2" cy="417.3" r="2.5"/>
	<circle cx="523.2" cy="346.3" r="2.5"/>
	<circle cx="546.2" cy="344.3" r="2.5"/>
	<circle cx="572.2" cy="342.3" r="2.5"/>
	<circle cx="579.2" cy="358.3" r="2.5"/>
	<circle cx="593.2" cy="388.3" r="2.5"/>
	<circle cx="552.2" cy="468.3" r="2.5"/>
	<circle cx="547.2" cy="328.3" r="2.5"/>
	<circle cx="517.2" cy="329.3" r="2.5"/>
	<circle cx="496.2" cy="318.3" r="2.5"/>
	<circle cx="485.2" cy="308.3" r="2.5"/>
	<circle cx="597.7" cy="265.8" r="16.7"/>
	<circle cx="554.7" cy="183.8" r="16.7"/>
	<circle cx="616.7" cy="299.8" r="5"/>
	<circle cx="627.7" cy="306.8" r="5"/>
	<circle cx="613.7" cy="283.8" r="5"/>
	<circle cx="630.3" cy="288.4" r="11"/>
	<circle cx="625.3" cy="265.4" r="11"/>
	<circle cx="613.7" cy="231.8" r="16.7"/>
	<circle cx="633.2" cy="250.3" r="2.5"/>
	<circle cx="586.2" cy="309.3" r="2.5"/>
	<circle cx="635.2" cy="318.3" r="2.5"/>
	<circle cx="624.2" cy="369.3" r="2.5"/>
	<circle cx="594.2" cy="243.3" r="2.5"/>
	<circle cx="615.2" cy="254.3" r="2.5"/>
	<circle cx="555.2" cy="325.3" r="2.5"/>
	<circle cx="554.2" cy="431.3" r="2.5"/>
	<circle cx="529.2" cy="463.3" r="2.5"/>
	<circle cx="568.2" cy="457.3" r="2.5"/>
	<circle cx="593.7" cy="191.8" r="16.7"/>
	<circle cx="522.7" cy="282.8" r="5"/>
	<circle cx="576.7" cy="258.8" r="5"/>
	<circle cx="489.7" cy="300.8" r="5"/>
	<circle cx="511.7" cy="269.8" r="5"/>
	<circle cx="541.7" cy="248.8" r="5"/>
	<circle cx="529.7" cy="261.8" r="5"/>
	<circle cx="538.7" cy="228.8" r="5"/>
	<circle cx="555.7" cy="249.8" r="5"/>
	<circle cx="590.7" cy="215.8" r="5"/>
	<circle cx="521.7" cy="298.8" r="5"/>
	<circle cx="541.7" cy="208.8" r="5"/>
	<circle cx="461.7" cy="288.8" r="5"/>
	<circle cx="471.7" cy="258.8" r="5"/>
	<circle cx="471.7" cy="298.8" r="5"/>
	<circle cx="461.7" cy="211.8" r="5"/>
	<circle cx="571.7" cy="198.8" r="5"/>
	<circle cx="521.2" cy="268.3" r="2.5"/>
	<circle cx="541.2" cy="258.3" r="2.5"/>
	<circle cx="567.2" cy="251.3" r="2.5"/>
	<circle cx="581.2" cy="248.3" r="2.5"/>
	<circle cx="588.2" cy="236.3" r="2.5"/>
	<circle cx="541.2" cy="218.3" r="2.5"/>
	<circle cx="551.2" cy="217.3" r="2.5"/>
	<circle cx="561.2" cy="207.3" r="2.5"/>
	<circle cx="471.2" cy="247.3" r="2.5"/>
	<circle cx="448.2" cy="289.3" r="2.5"/>
	<circle cx="461.2" cy="298.3" r="2.5"/>
	<circle cx="471.2" cy="288.3" r="2.5"/>
	<circle cx="438.2" cy="324.3" r="2.5"/>
	<circle cx="450.2" cy="307.3" r="2.5"/>
	<circle cx="451.2" cy="368.3" r="2.5"/>
	<circle cx="478.2" cy="372.3" r="2.5"/>
	<circle cx="456.2" cy="366.3" r="2.5"/>
	<circle cx="424.2" cy="326.3" r="2.5"/>
	<circle cx="436.2" cy="344.3" r="2.5"/>
	<circle cx="445.2" cy="360.3" r="2.5"/>
	<circle cx="440.2" cy="352.3" r="2.5"/>
	<circle cx="406.7" cy="306.8" r="5"/>
	<circle cx="433.7" cy="332.8" r="5"/>
	<circle cx="465.7" cy="471.8" r="5"/>
	<circle cx="463.7" cy="483.8" r="5"/>
	<circle cx="467.7" cy="494.8" r="5"/>
	<circle cx="477.2" cy="501.3" r="2.5"/>
	<circle cx="499.7" cy="485.8" r="16.7"/>
	<circle cx="498.3" cy="455.4" r="11"/>
	<circle cx="516.7" cy="452.8" r="5"/>
	<circle cx="521.7" cy="482.8" r="5"/>
	<circle cx="477.7" cy="461.8" r="5"/>
	<circle cx="520.2" cy="463.3" r="2.5"/>
	<circle cx="484.2" cy="452.3" r="2.5"/>
	<circle cx="512.2" cy="465.3" r="2.5"/>
	<circle cx="486.2" cy="466.3" r="2.5"/>
	<circle cx="531.2" cy="487.3" r="2.5"/>
	<circle cx="520.2" cy="494.3" r="2.5"/>
	<circle cx="484.2" cy="503.3" r="2.5"/>
	<circle cx="481.2" cy="495.3" r="2.5"/>
	<circle cx="477.7" cy="475.8" r="5"/>
	<circle cx="519.2" cy="471.3" r="2.5"/>
	<circle cx="477.2" cy="488.3" r="2.5"/>
	<circle cx="412.2" cy="316.3" r="2.5"/>
	<circle cx="396.2" cy="302.3" r="2.5"/>
	<circle cx="344.2" cy="283.3" r="2.5"/>
	<circle cx="351.2" cy="284.3" r="2.5"/>
	<circle cx="371.2" cy="290.3" r="2.5"/>
	<circle cx="351.2" cy="273.3" r="2.5"/>
	<circle cx="360.7" cy="283.8" r="5"/>
	<circle cx="407.7" cy="292.8" r="5"/>
	<circle cx="366.7" cy="275.8" r="5"/>
	<circle cx="390.2" cy="299.3" r="2.5"/>
	<circle cx="354.2" cy="278.3" r="2.5"/>
	<circle cx="379.2" cy="263.3" r="2.5"/>
	<circle cx="408.2" cy="282.3" r="2.5"/>
	<circle cx="401.2" cy="297.3" r="2.5"/>
	<circle cx="415.2" cy="290.3" r="2.5"/>
	<circle cx="447.2" cy="296.3" r="2.5"/>
	<circle cx="440.2" cy="288.3" r="2.5"/>
	<circle cx="452.7" cy="280.8" r="5"/>
	<circle cx="461.7" cy="272.8" r="5"/>
	<circle cx="387.7" cy="255.8" r="5"/>
	<circle cx="384.7" cy="237.8" r="5"/>
	<circle cx="466.7" cy="227.8" r="5"/>
	<circle cx="391.7" cy="217.8" r="5"/>
	<circle cx="329.7" cy="254.8" r="5"/>
	<circle cx="317.7" cy="263.8" r="5"/>
	<circle cx="309.7" cy="237.8" r="5"/>
	<circle cx="442.7" cy="204.8" r="5"/>
	<circle cx="427.2" cy="285.3" r="2.5"/>
	<circle cx="469.2" cy="267.3" r="2.5"/>
	<circle cx="451.2" cy="211.3" r="2.5"/>
	<circle cx="468.2" cy="239.3" r="2.5"/>
	<circle cx="509.2" cy="283.3" r="2.5"/>
	<circle cx="391.2" cy="230.3" r="2.5"/>
	<circle cx="380.2" cy="226.3" r="2.5"/>
	<circle cx="441.2" cy="195.3" r="2.5"/>
	<circle cx="530.2" cy="206.3" r="2.5"/>
	<circle cx="401.2" cy="217.3" r="2.5"/>
	<circle cx="570.2" cy="349.3" r="2.5"/>
	<circle cx="565.2" cy="404.3" r="2.5"/>
	<circle cx="542.2" cy="425.3" r="2.5"/>
	<circle cx="557.2" cy="414.3" r="2.5"/>
	<circle cx="616.2" cy="393.3" r="2.5"/>
	<circle cx="592.2" cy="432.3" r="2.5"/>
	<circle cx="392.7" cy="205.8" r="5"/>
	<circle cx="494.7" cy="194.8" r="5"/>
	<circle cx="446.7" cy="184.8" r="5"/>
	<circle cx="340.7" cy="197.8" r="5"/>
	<circle cx="333.7" cy="234.8" r="5"/>
	<circle cx="344.7" cy="214.8" r="5"/>
	<circle cx="395.7" cy="144.8" r="5"/>
	<circle cx="435.7" cy="155.8" r="5"/>
	<circle cx="455.7" cy="113.8" r="5"/>
	<circle cx="455.7" cy="94.8" r="5"/>
	<circle cx="381.7" cy="184.8" r="5"/>
	<circle cx="496.7" cy="133.8" r="5"/>
	<circle cx="356.7" cy="123.8" r="5"/>
	<circle cx="385.7" cy="163.8" r="5"/>
	<circle cx="485.7" cy="154.8" r="5"/>
	<circle cx="487.7" cy="168.8" r="5"/>
	<circle cx="477.3" cy="124.4" r="11"/>
	<circle cx="307.3" cy="144.4" r="11"/>
	<circle cx="286.3" cy="215.4" r="11"/>
	<circle cx="249.3" cy="286.4" r="11"/>
	<circle cx="256.3" cy="215.4" r="11"/>
	<circle cx="510.3" cy="146.4" r="11"/>
	<circle cx="496.3" cy="103.4" r="11"/>
	<circle cx="326.3" cy="117.4" r="11"/>
	<circle cx="350.3" cy="103.4" r="11"/>
	<circle cx="236.3" cy="337.4" r="11"/>
	<circle cx="226.3" cy="255.4" r="11"/>
	<circle cx="253.3" cy="184.4" r="11"/>
	<circle cx="295.3" cy="454.4" r="11"/>
	<circle cx="473.2" cy="210.3" r="2.5"/>
	<circle cx="442.2" cy="171.3" r="2.5"/>
	<circle cx="432.2" cy="202.3" r="2.5"/>
	<circle cx="413.2" cy="207.3" r="2.5"/>
	<circle cx="454.2" cy="170.3" r="2.5"/>
	<circle cx="413.2" cy="151.3" r="2.5"/>
	<circle cx="472.2" cy="168.3" r="2.5"/>
	<circle cx="494.2" cy="181.3" r="2.5"/>
	<circle cx="386.2" cy="197.3" r="2.5"/>
	<circle cx="399.2" cy="158.3" r="2.5"/>
	<circle cx="483.2" cy="141.3" r="2.5"/>
	<circle cx="531.2" cy="156.3" r="2.5"/>
	<circle cx="576.2" cy="180.3" r="2.5"/>
	<circle cx="613.2" cy="192.3" r="2.5"/>
	<circle cx="618.2" cy="200.3" r="2.5"/>
	<circle cx="631.2" cy="240.3" r="2.5"/>
	<circle cx="623.2" cy="211.3" r="2.5"/>
	<circle cx="610.7" cy="207.8" r="5"/>
	<circle cx="571.7" cy="165.8" r="5"/>
	<circle cx="582.7" cy="169.8" r="5"/>
	<circle cx="469.7" cy="106.8" r="5"/>
	<circle cx="533.7" cy="144.8" r="5"/>
	<circle cx="582.7" cy="153.8" r="5"/>
	<circle cx="404.7" cy="82.8" r="5"/>
	<circle cx="321.7" cy="190.8" r="5"/>
	<circle cx="271.7" cy="149.8" r="5"/>
	<circle cx="381.7" cy="139.8" r="5"/>
	<circle cx="499.2" cy="158.3" r="2.5"/>
	<circle cx="505.2" cy="129.3" r="2.5"/>
	<circle cx="547.2" cy="118.3" r="2.5"/>
	<circle cx="554.2" cy="126.3" r="2.5"/>
	<circle cx="593.2" cy="171.3" r="2.5"/>
	<circle cx="543.2" cy="161.3" r="2.5"/>
	<circle cx="592.2" cy="161.3" r="2.5"/>
	<circle cx="599.2" cy="171.3" r="2.5"/>
	<circle cx="639.2" cy="274.3" r="2.5"/>
	<circle cx="493.2" cy="120.3" r="2.5"/>
	<circle cx="453.2" cy="125.3" r="2.5"/>
	<circle cx="522.2" cy="102.3" r="2.5"/>
	<circle cx="403.2" cy="131.3" r="2.5"/>
	<circle cx="481.2" cy="110.3" r="2.5"/>
	<circle cx="474.3" cy="90.4" r="11"/>
	<circle cx="225.3" cy="303.4" r="11"/>
	<circle cx="227.3" cy="221.4" r="11"/>
	<circle cx="302.3" cy="254.4" r="11"/>
	<circle cx="408.7" cy="142.8" r="5"/>
	<circle cx="365.7" cy="89.8" r="5"/>
	<circle cx="449.7" cy="82.8" r="5"/>
	<circle cx="505.7" cy="118.8" r="5"/>
	<circle cx="342.7" cy="121.8" r="5"/>
	<circle cx="314.7" cy="171.8" r="5"/>
	<circle cx="310.7" cy="124.8" r="5"/>
	<circle cx="289.7" cy="150.8" r="5"/>
	<circle cx="376.2" cy="84.3" r="2.5"/>
	<circle cx="389.2" cy="82.3" r="2.5"/>
	<circle cx="441.2" cy="112.3" r="2.5"/>
	<circle cx="412.2" cy="77.3" r="2.5"/>
	<circle cx="511.2" cy="103.3" r="2.5"/>
	<circle cx="420.2" cy="77.3" r="2.5"/>
	<circle cx="432.2" cy="76.3" r="2.5"/>
	<circle cx="489.2" cy="88.3" r="2.5"/>
	<circle cx="323.2" cy="100.3" r="2.5"/>
	<circle cx="330.2" cy="97.3" r="2.5"/>
	<circle cx="381.2" cy="156.3" r="2.5"/>
	<circle cx="339.2" cy="93.3" r="2.5"/>
	<circle cx="354.2" cy="89.3" r="2.5"/>
	<circle cx="306.2" cy="115.3" r="2.5"/>
	<circle cx="339.2" cy="223.3" r="2.5"/>
	<circle cx="312.2" cy="109.3" r="2.5"/>
	<circle cx="405.2" cy="153.3" r="2.5"/>
	<circle cx="366.7" cy="128.8" r="5"/>
	<circle cx="296.7" cy="128.8" r="5"/>
	<circle cx="285.7" cy="138.8" r="5"/>
	<circle cx="268.7" cy="199.8" r="5"/>
	<circle cx="297.7" cy="234.8" r="5"/>
	<circle cx="294.7" cy="270.8" r="5"/>
	<circle cx="287.2" cy="128.3" r="2.5"/>
	<circle cx="276.2" cy="138.3" r="2.5"/>
	<circle cx="307.2" cy="159.3" r="2.5"/>
	<circle cx="320.2" cy="133.3" r="2.5"/>
	<circle cx="279.2" cy="151.3" r="2.5"/>
	<circle cx="267.2" cy="167.3" r="2.5"/>
	<circle cx="272.2" cy="158.3" r="2.5"/>
	<circle cx="267.2" cy="142.3" r="2.5"/>
	<circle cx="297.2" cy="118.3" r="2.5"/>
	<circle cx="257.2" cy="152.3" r="2.5"/>
	<circle cx="226.2" cy="200.3" r="2.5"/>
	<circle cx="254.2" cy="160.3" r="2.5"/>
	<circle cx="327.2" cy="133.3" r="2.5"/>
	<circle cx="363.2" cy="113.3" r="2.5"/>
	<circle cx="414.2" cy="112.3" r="2.5"/>
	<circle cx="387.2" cy="149.3" r="2.5"/>
	<circle cx="336.2" cy="208.3" r="2.5"/>
	<circle cx="332.2" cy="189.3" r="2.5"/>
	<circle cx="316.2" cy="182.3" r="2.5"/>
	<circle cx="350.2" cy="192.3" r="2.5"/>
	<circle cx="383.2" cy="175.3" r="2.5"/>
	<circle cx="317.2" cy="249.3" r="2.5"/>
	<circle cx="319.2" cy="237.3" r="2.5"/>
	<circle cx="351.2" cy="222.3" r="2.5"/>
	<circle cx="371.2" cy="186.3" r="2.5"/>
	<circle cx="296.2" cy="204.3" r="2.5"/>
	<circle cx="312.2" cy="192.3" r="2.5"/>
	<circle cx="270.2" cy="210.3" r="2.5"/>
	<circle cx="272.2" cy="222.3" r="2.5"/>
	<circle cx="315.2" cy="159.3" r="2.5"/>
	<circle cx="237.2" cy="209.3" r="2.5"/>
	<circle cx="402.2" cy="206.3" r="2.5"/>
	<circle cx="425.2" cy="156.3" r="2.5"/>
	<circle cx="242.7" cy="201.8" r="5"/>
	<circle cx="258.7" cy="166.8" r="5"/>
	<circle cx="238.7" cy="238.8" r="5"/>
	<circle cx="269.7" cy="278.8" r="5"/>
	<circle cx="225.7" cy="283.8" r="5"/>
	<circle cx="239.7" cy="269.8" r="5"/>
	<circle cx="246.7" cy="308.8" r="5"/>
	<circle cx="211.7" cy="269.8" r="5"/>
	<circle cx="218.7" cy="238.8" r="5"/>
	<circle cx="283.7" cy="281.8" r="5"/>
	<circle cx="236.7" cy="315.8" r="5"/>
	<circle cx="263.7" cy="347.8" r="5"/>
	<circle cx="253.7" cy="337.8" r="5"/>
	<circle cx="222.7" cy="329.8" r="5"/>
	<circle cx="212.7" cy="317.8" r="5"/>
	<circle cx="206.7" cy="289.8" r="5"/>
	<circle cx="319.7" cy="339.8" r="5"/>
	<circle cx="260.7" cy="299.8" r="5"/>
	<circle cx="293.7" cy="357.8" r="5"/>
	<circle cx="354.7" cy="468.4" r="22"/>
	<circle cx="270.7" cy="376.4" r="22"/>
	<circle cx="284.7" cy="419.4" r="22"/>
	<circle cx="304.7" cy="389.8" r="5"/>
	<circle cx="259.7" cy="404.8" r="5"/>
	<circle cx="313.7" cy="417.8" r="5"/>
	<circle cx="254.7" cy="318.8" r="5"/>
	<circle cx="354.7" cy="408.8" r="5"/>
	<circle cx="344.7" cy="418.8" r="5"/>
	<circle cx="374.7" cy="437.8" r="5"/>
	<circle cx="334.7" cy="438.8" r="5"/>
	<circle cx="250.7" cy="351.8" r="5"/>
	<circle cx="414.7" cy="478.8" r="5"/>
	<circle cx="384.7" cy="488.8" r="5"/>
	<path d="M239.7,368.8c0,2.8-2.2,5-5,5c-2.8,0-5-2.2-5-5c-0.1-3.5,2.1-6.4,5-5C237.2,365,239.7,366,239.7,368.8z"/>
	<circle cx="216.7" cy="358.8" r="5"/>
	<circle cx="244.7" cy="388.8" r="5"/>
	<circle cx="363.7" cy="421.8" r="5"/>
	<circle cx="314.7" cy="439.8" r="5"/>
	<circle cx="324.7" cy="459.8" r="5"/>
	<circle cx="388.7" cy="502.8" r="5"/>
	<circle cx="352.7" cy="436.8" r="5"/>
	<circle cx="434.7" cy="469.8" r="5"/>
	<circle cx="434.7" cy="489.8" r="5"/>
	<circle cx="314.7" cy="478.8" r="5"/>
	<circle cx="383.7" cy="470.8" r="5"/>
	<circle cx="370.3" cy="498.4" r="11"/>
	<circle cx="334.2" cy="376.3" r="2.5"/>
	<circle cx="320.2" cy="297.3" r="2.5"/>
	<circle cx="322.2" cy="311.3" r="2.5"/>
	<circle cx="322.2" cy="329.3" r="2.5"/>
	<circle cx="295.2" cy="281.3" r="2.5"/>
	<circle cx="264.2" cy="291.3" r="2.5"/>
	<circle cx="254.2" cy="272.3" r="2.5"/>
	<circle cx="224.2" cy="273.3" r="2.5"/>
	<circle cx="207.2" cy="308.3" r="2.5"/>
	<circle cx="244.2" cy="229.3" r="2.5"/>
	<circle cx="247.2" cy="170.3" r="2.5"/>
	<circle cx="233.2" cy="191.3" r="2.5"/>
	<circle cx="238.2" cy="179.3" r="2.5"/>
	<circle cx="534.2" cy="240.3" r="2.5"/>
	<circle cx="339.2" cy="381.3" r="2.5"/>
	<circle cx="364.2" cy="412.3" r="2.5"/>
	<circle cx="314.2" cy="382.3" r="2.5"/>
	<circle cx="274.2" cy="350.3" r="2.5"/>
	<circle cx="297.2" cy="381.3" r="2.5"/>
	<circle cx="324.2" cy="421.3" r="2.5"/>
	<circle cx="244.2" cy="361.3" r="2.5"/>
	<circle cx="234.2" cy="354.3" r="2.5"/>
	<circle cx="214.2" cy="341.3" r="2.5"/>
	<circle cx="224.2" cy="350.3" r="2.5"/>
	<circle cx="349.2" cy="400.3" r="2.5"/>
	<circle cx="384.2" cy="430.3" r="2.5"/>
	<circle cx="424.7" cy="459.8" r="5"/>
	<circle cx="222.2" cy="373.3" r="2.5"/>
	<circle cx="292.2" cy="395.3" r="2.5"/>
	<circle cx="372.2" cy="424.3" r="2.5"/>
	<circle cx="305.2" cy="400.3" r="2.5"/>
	<circle cx="232.2" cy="383.3" r="2.5"/>
	<circle cx="223.2" cy="385.3" r="2.5"/>
	<circle cx="244.3" cy="405.4" r="11"/>
	<circle cx="228.2" cy="394.3" r="2.5"/>
	<circle cx="258.2" cy="417.3" r="2.5"/>
	<circle cx="342.2" cy="430.3" r="2.5"/>
	<circle cx="246.2" cy="421.3" r="2.5"/>
	<circle cx="392.2" cy="431.3" r="2.5"/>
	<circle cx="422.2" cy="449.3" r="2.5"/>
	<circle cx="400.2" cy="434.3" r="2.5"/>
	<circle cx="433.2" cy="458.3" r="2.5"/>
	<circle cx="439.2" cy="478.3" r="2.5"/>
	<path d="M260.7,427.8c0,2.8-2.2,5-5,5s-5-2.2-5-5c-0.1-3.5,2.1-6.4,5-5C258.2,424,260.7,425,260.7,427.8z"/>
	<path d="M270.7,437.8c0,2.8-2.2,5-5,5c-2.8,0-5-2.2-5-5c-0.1-3.5,2.1-6.4,5-5C268.2,434,270.7,435,270.7,437.8z"/>
	<circle cx="278.7" cy="446.8" r="5"/>
	<circle cx="409.3" cy="497.4" r="11"/>
	<circle cx="423.7" cy="470.8" r="5"/>
	<circle cx="304.7" cy="469.8" r="5"/>
	<circle cx="376.7" cy="449.8" r="5"/>
	<circle cx="351.7" cy="496.8" r="5"/>
	<circle cx="326.7" cy="485.8" r="5"/>
	<circle cx="312.2" cy="453.3" r="2.5"/>
	<circle cx="397.2" cy="482.3" r="2.5"/>
	<circle cx="428.2" cy="479.3" r="2.5"/>
	<circle cx="424.2" cy="485.3" r="2.5"/>
	<circle cx="386.2" cy="440.3" r="2.5"/>
	<circle cx="326.2" cy="430.3" r="2.5"/>
	<circle cx="310.2" cy="432.3" r="2.5"/>
	<circle cx="323.2" cy="446.3" r="2.5"/>
	<circle cx="363.2" cy="433.3" r="2.5"/>
	<circle cx="426.2" cy="498.3" r="2.5"/>
	<circle cx="331.2" cy="452.3" r="2.5"/>
	<circle cx="327.2" cy="472.3" r="2.5"/>
	<circle cx="404.2" cy="480.3" r="2.5"/>
</g>
</svg>
