<?xml version="1.0" encoding="utf-8"?>
<!-- Generator: Adobe Illustrator 17.1.0, SVG Export Plug-In . SVG Version: 6.00 Build 0)  -->
<!DOCTYPE svg PUBLIC "-//W3C//DTD SVG 1.1//EN" "http://www.w3.org/Graphics/SVG/1.1/DTD/svg11.dtd">
<svg version="1.1" id="Layer_1" xmlns="http://www.w3.org/2000/svg" xmlns:xlink="http://www.w3.org/1999/xlink" x="0px" y="0px"
	 viewBox="0 0 512 512" enable-background="new 0 0 512 512" xml:space="preserve">
<path id="home-4-icon" d="M328.7,262.7v56.1h-40.1v-30.5h-30.2v30.5h-40.1v-56.1H204l69.5-69.4l69.5,69.4L328.7,262.7L328.7,262.7z
	 M320.1,199.5h-16.2v12.9l16.2,16.2V199.5z"/>
<path id="refresh-2-icon" d="M179.2,116c-51.2,31.8-80.6,85.4-83.4,141.3H49.4l74.3,74.7l74.7-74.7h-45.9
	c2.7-37.1,22.5-72.1,56.5-93.2c56.4-35,130.5-17.6,165.5,38.8c35,56.4,17.6,130.5-38.8,165.5c-51.6,32-118,20.2-155.8-25.3
	l-39.8,40.6c56.1,63.3,151.2,78.9,225.4,32.9c83-51.5,108.6-160.5,57.1-243.5C371.2,90.1,262.2,64.6,179.2,116z"/>
</svg>
